HIERARCHY
ROOT Hips
{
 OFFSET 0.000000 0.000000 0.000000
 CHANNELS 6 Xposition Yposition Zposition Yrotation Xrotation Zrotation
 JOINT Chest
 {
  OFFSET 0.000000 9.585900 0.002600
  CHANNELS 3 Yrotation Xrotation Zrotation
  JOINT Chest2
  {
   OFFSET 0.000000 9.601200 -0.005300
   CHANNELS 3 Yrotation Xrotation Zrotation
   JOINT Chest3
   {
    OFFSET 0.000000 9.561800 0.000000
    CHANNELS 3 Yrotation Xrotation Zrotation
    JOINT Chest4
    {
     OFFSET 0.000000 9.552100 0.000000
     CHANNELS 3 Yrotation Xrotation Zrotation
     JOINT Neck
     {
      OFFSET 0.000000 14.453000 0.000000
      CHANNELS 3 Yrotation Xrotation Zrotation
      JOINT Head
      {
       OFFSET 0.000000 8.936500 -0.011300
       CHANNELS 3 Yrotation Xrotation Zrotation
       End Site
       {
        OFFSET 0.000000 17.073600 -0.006000
       }
      }
     }
     JOINT RightCollar
     {
      OFFSET -2.921100 9.558500 0.000000
      CHANNELS 3 Yrotation Xrotation Zrotation
      JOINT RightShoulder
      {
       OFFSET -13.519700 0.000000 0.000000
       CHANNELS 3 Yrotation Xrotation Zrotation
       JOINT RightElbow
       {
        OFFSET 0.000000 -29.696600 0.000000
        CHANNELS 3 Yrotation Xrotation Zrotation
        JOINT RightWrist
        {
         OFFSET 0.000000 -24.004700 0.000000
         CHANNELS 3 Yrotation Xrotation Zrotation
         End Site
         {
          OFFSET 0.000000 -17.728500 0.000000
         }
        }
       }
      }
     }
     JOINT LeftCollar
     {
      OFFSET 2.921100 9.558500 0.000000
      CHANNELS 3 Yrotation Xrotation Zrotation
      JOINT LeftShoulder
      {
       OFFSET 13.519700 0.000000 0.000000
       CHANNELS 3 Yrotation Xrotation Zrotation
       JOINT LeftElbow
       {
        OFFSET 0.000000 -29.696600 0.000000
        CHANNELS 3 Yrotation Xrotation Zrotation
        JOINT LeftWrist
        {
         OFFSET 0.000000 -24.004700 0.000000
         CHANNELS 3 Yrotation Xrotation Zrotation
         End Site
         {
          OFFSET 0.000000 -17.728500 0.000000
         }
        }
       }
      }
     }
    }
   }
  }
 }
 JOINT RightHip
 {
  OFFSET -7.771700 -0.012900 -0.001300
  CHANNELS 3 Yrotation Xrotation Zrotation
  JOINT RightKnee
  {
   OFFSET 0.000000 -40.869800 0.001200
   CHANNELS 3 Yrotation Xrotation Zrotation
   JOINT RightAnkle
   {
    OFFSET 0.000000 -39.717900 0.002100
    CHANNELS 3 Yrotation Xrotation Zrotation
    JOINT RightToe
    {
     OFFSET 0.000000 -4.965400 11.033500
     CHANNELS 3 Yrotation Xrotation Zrotation
     End Site
     {
      OFFSET 0.000000 -1.423100 5.872300
     }
    }
   }
  }
 }
 JOINT LeftHip
 {
  OFFSET 7.771700 -0.012900 -0.001300
  CHANNELS 3 Yrotation Xrotation Zrotation
  JOINT LeftKnee
  {
   OFFSET 0.000000 -40.869800 0.001200
   CHANNELS 3 Yrotation Xrotation Zrotation
   JOINT LeftAnkle
   {
    OFFSET 0.000000 -39.717900 0.002100
    CHANNELS 3 Yrotation Xrotation Zrotation
    JOINT LeftToe
    {
     OFFSET 0.000000 -4.965400 11.033500
     CHANNELS 3 Yrotation Xrotation Zrotation
     End Site
     {
      OFFSET 0.000000 -1.423100 5.872300
     }
    }
   }
  }
 }
}
MOTION
Frames: 8
Frame Time: 0.008333
-27.636007 52.893974 2.542927 -177.593983 -14.692529 -2.284183 0.846679 15.423731 0.557720 0.073986 1.452097 0.050361 0.124673 2.434116 0.082999 0.775372 13.744868 0.571178 -1.234821 17.664643 2.872434 -1.953502 -7.067939 3.327891 -0.147855 -1.148812 3.010945 0.468639 -8.916413 -6.492991 -90.834709 -71.285514 124.975867 -5.959098 0.003540 -8.237156 -5.139455 -2.120303 0.755512 3.668925 -7.080039 10.355425 81.460876 -61.722915 -122.500518 0.939941 -4.878911 4.661861 2.400867 -63.815986 10.647903 -175.416103 86.104238 -177.136715 -12.443570 -22.585896 13.009898 0.012834 -0.099533 -0.020261 4.818279 -62.418890 -3.788906 122.207344 78.081531 120.336020 -6.512451 -19.605251 -1.333385 0.026147 0.112352 0.013638
-27.635272 52.894530 2.540061 -177.595763 -14.688561 -2.285801 0.852573 15.431609 0.565875 0.073914 1.452438 0.050690 0.124358 2.436408 0.083742 0.782571 13.759642 0.582416 -1.240390 17.649759 2.864858 -1.954327 -7.069892 3.328433 -0.156180 -1.165158 3.001124 0.466146 -8.916739 -6.496855 -90.866856 -71.279872 125.015468 -5.962805 -0.014040 -8.235539 -5.154851 -2.138877 0.743423 3.690008 -7.120079 10.381341 81.500247 -61.719597 -122.516622 0.928506 -4.904212 4.673512 2.399751 -63.814280 10.620923 -175.886687 86.104158 -177.637341 -12.182364 -22.600799 12.971321 0.022829 -0.105788 -0.029370 4.818015 -62.423111 -3.782017 122.211843 78.074358 120.335209 -6.512516 -19.605162 -1.327660 0.019801 0.109540 0.010819
-27.634983 52.894701 2.538198 -177.592276 -14.677889 -2.285757 0.850857 15.429795 0.569700 0.074078 1.458627 0.053264 0.126370 2.446590 0.088984 0.775606 13.741623 0.574569 -1.230736 17.670749 2.876577 -1.959316 -7.091827 3.318611 -0.151723 -1.153488 3.004333 0.458085 -8.902675 -6.498217 -90.954013 -71.278109 125.114427 -6.007237 -0.097557 -8.230367 -5.174263 -2.124014 0.744517 3.719860 -7.155227 10.389035 81.585560 -61.738825 -122.553758 0.931042 -4.925885 4.673269 2.396659 -63.821846 10.617454 -175.917780 86.105100 -177.671104 -12.122566 -22.601841 12.961257 0.022682 -0.095853 -0.028638 4.818207 -62.433993 -3.785006 122.167391 78.058408 120.293826 -6.531301 -19.603201 -1.332534 0.021128 0.107903 0.013734
-27.635666 52.894816 2.536071 -177.583248 -14.668924 -2.281279 0.838348 15.431910 0.566785 0.073451 1.459517 0.053825 0.125330 2.447945 0.089899 0.774734 13.736076 0.573481 -1.229578 17.671466 2.875003 -1.956974 -7.091886 3.316503 -0.144282 -1.153355 3.001103 0.453645 -8.906104 -6.499442 -90.903216 -71.232724 125.065792 -5.992629 -0.132842 -8.223045 -5.180336 -2.119169 0.742547 3.740898 -7.180438 10.399193 81.689280 -61.762168 -122.595089 0.946671 -4.933116 4.670869 2.408855 -63.830378 10.613411 -175.654359 86.105974 -177.383059 -12.233585 -22.591425 12.977185 0.015473 -0.077286 -0.022314 4.822838 -62.442665 -3.799381 122.158337 78.054213 120.284763 -6.535921 -19.599846 -1.334984 0.021044 0.105616 0.015140
-27.635150 52.894918 2.533658 -177.578119 -14.662112 -2.283133 0.830383 15.435019 0.570522 0.074354 1.459768 0.053649 0.124512 2.449441 0.090625 0.762732 13.757167 0.588353 -1.222947 17.647038 2.856203 -1.950570 -7.073111 3.317020 -0.128887 -1.170925 2.981960 0.452502 -8.902253 -6.496001 -90.907884 -71.199031 125.081273 -5.992573 -0.154421 -8.233720 -5.169908 -2.146804 0.724140 3.764777 -7.207425 10.427823 81.741232 -61.753715 -122.605084 0.970775 -4.924192 4.651827 2.407999 -63.834215 10.612563 -175.602182 86.105909 -177.327833 -12.232439 -22.591341 12.982394 0.014259 -0.067960 -0.022021 4.815895 -62.447382 -3.794838 122.159383 78.053756 120.284180 -6.536597 -19.604202 -1.334935 0.024924 0.110662 0.013847
-27.634097 52.895024 2.530740 -177.575718 -14.659176 -2.288086 0.828335 15.434164 0.575801 0.075875 1.466777 0.055616 0.123865 2.448012 0.089989 0.761646 13.762613 0.591128 -1.222205 17.662538 2.861651 -1.949373 -7.098272 3.308584 -0.130016 -1.141458 2.986689 0.457877 -8.927734 -6.499124 -90.927333 -71.177003 125.111078 -6.011588 -0.176605 -8.252862 -5.172529 -2.152749 0.721926 3.796012 -7.237246 10.473097 81.783546 -61.722181 -122.607374 0.958870 -4.909276 4.677316 2.401827 -63.836140 10.631171 -175.440774 86.107882 -177.152705 -12.315330 -22.581370 12.997959 0.009731 -0.058032 -0.017474 4.804479 -62.451070 -3.774323 122.193968 78.059196 120.316577 -6.546619 -19.604531 -1.333380 0.033717 0.109911 0.016903
-27.634939 52.894890 2.528078 -177.572576 -14.656007 -2.282782 0.826680 15.439491 0.571714 0.073282 1.467288 0.057877 0.123929 2.441641 0.086792 0.761827 13.772895 0.595055 -1.221313 17.662277 2.860360 -1.949560 -7.097291 3.308562 -0.139438 -1.130166 2.993477 0.466882 -8.937101 -6.496252 -90.950635 -71.169377 125.146151 -6.016496 -0.188094 -8.270344 -5.179354 -2.149995 0.724225 3.822221 -7.258071 10.485026 81.849795 -61.721740 -122.622093 0.950575 -4.887120 4.691286 2.421990 -63.842187 10.640962 -174.957538 86.105999 -176.643910 -12.511849 -22.557586 13.035570 -0.000242 -0.046076 -0.008915 4.812940 -62.453825 -3.786689 122.204289 78.058717 120.325552 -6.545809 -19.603733 -1.331998 0.032189 0.108758 0.016248
-27.635548 52.894517 2.526094 -177.573744 -14.650008 -2.279006 0.822651 15.450443 0.575691 0.073204 1.459939 0.053715 0.128809 2.442423 0.086007 0.759236 13.769163 0.593359 -1.220795 17.667307 2.862170 -1.941483 -7.088462 3.303452 -0.150521 -1.116153 3.003711 0.472523 -8.920963 -6.488349 -91.046634 -71.174378 125.254390 -6.020860 -0.203314 -8.276681 -5.183276 -2.136691 0.728924 3.848380 -7.275934 10.493670 81.919686 -61.724347 -122.644701 0.954262 -4.876501 4.685775 2.440242 -63.847392 10.617415 -175.095732 86.102845 -176.801751 -12.421196 -22.559514 13.034900 0.005905 -0.052142 -0.011788 4.820948 -62.460136 -3.795251 122.210628 78.057991 120.331098 -6.544553 -19.601542 -1.329637 0.030580 0.105943 0.014087
